<svg width="28" height="27" viewBox="0 0 28 27" fill="none" xmlns="http://www.w3.org/2000/svg">
<g clip-path="url(#clip0_1_186)">
<path d="M23.7032 4.67502C21.9186 3.8854 20.0048 3.30365 18.0039 2.97045C17.9674 2.96402 17.931 2.98009 17.9123 3.01223C17.6661 3.43435 17.3935 3.98504 17.2026 4.41787C15.0505 4.10718 12.9094 4.10718 10.8014 4.41787C10.6104 3.97542 10.3279 3.43435 10.0807 3.01223C10.0619 2.98117 10.0255 2.96509 9.98906 2.97045C7.98923 3.30258 6.07549 3.88434 4.28976 4.67502C4.2743 4.68145 4.26105 4.69217 4.25225 4.70609C0.62229 9.93549 -0.372109 15.0364 0.11571 20.074C0.117917 20.0986 0.132265 20.1222 0.152131 20.1372C2.54708 21.8332 4.86699 22.8628 7.14383 23.5452C7.18026 23.556 7.21887 23.5431 7.24206 23.5142C7.78065 22.805 8.26075 22.0571 8.67239 21.2707C8.69668 21.2247 8.67349 21.17 8.62384 21.1518C7.86232 20.8732 7.1372 20.5336 6.43968 20.1479C6.38451 20.1169 6.3801 20.0408 6.43085 20.0043C6.57763 19.8983 6.72446 19.7879 6.86461 19.6765C6.88997 19.6561 6.92531 19.6518 6.95512 19.6647C11.5375 21.6821 16.4985 21.6821 21.0268 19.6647C21.0566 19.6508 21.0919 19.6551 21.1184 19.6754C21.2586 19.7868 21.4054 19.8983 21.5533 20.0043C21.604 20.0408 21.6007 20.1169 21.5455 20.1479C20.848 20.5411 20.1229 20.8732 19.3603 21.1507C19.3106 21.1689 19.2885 21.2247 19.3128 21.2707C19.7333 22.056 20.2134 22.8039 20.742 23.5131C20.7641 23.5431 20.8038 23.556 20.8403 23.5452C23.1282 22.8628 25.4481 21.8332 27.843 20.1372C27.864 20.1222 27.8772 20.0997 27.8794 20.0751C28.4633 14.251 26.9016 9.19197 23.7396 4.70715C23.7319 4.69217 23.7186 4.68145 23.7032 4.67502ZM9.35669 17.0066C7.97708 17.0066 6.84032 15.7853 6.84032 14.2853C6.84032 12.7854 7.95504 11.564 9.35669 11.564C10.7694 11.564 11.8951 12.7961 11.873 14.2853C11.873 15.7853 10.7583 17.0066 9.35669 17.0066ZM18.6605 17.0066C17.281 17.0066 16.1442 15.7853 16.1442 14.2853C16.1442 12.7854 17.2589 11.564 18.6605 11.564C20.0732 11.564 21.199 12.7961 21.1769 14.2853C21.1769 15.7853 20.0732 17.0066 18.6605 17.0066Z" fill="black"/>
</g>
<defs>
<clipPath id="clip0_1_186">
<rect width="28" height="27" fill="white"/>
</clipPath>
</defs>
</svg>
